PathFileType	4	(X/Y/Z)	/Users/niels/Desktop/University/Third Semester/Perception and Action/Exam/Gymnastics Motion Tracking/Code for Gym Tracking/Analyzed Data/Webcam_Backflip/id6_2_pure_Sports2D/id6_2_pure_Sports2D_px_person00.trc
DataRate	CameraRate	NumFrames	NumMarkers	Units	OrigDataRate	OrigDataStartFrame	OrigNumFrames
29.81132075471698	29.81132075471698	11	22	m	29.81132075471698	139	159
Frame#	Time	Hip			RHip			RKnee			RAnkle			RBigToe			RSmallToe			RHeel			LHip			LKnee			LAnkle			LBigToe			LSmallToe			LHeel			Neck			Head			Nose			RShoulder			RElbow			RWrist			LShoulder			LElbow			LWrist		
		X1	Y1	Z1	X2	Y2	Z2	X3	Y3	Z3	X4	Y4	Z4	X5	Y5	Z5	X6	Y6	Z6	X7	Y7	Z7	X8	Y8	Z8	X9	Y9	Z9	X10	Y10	Z10	X11	Y11	Z11	X12	Y12	Z12	X13	Y13	Z13	X14	Y14	Z14	X15	Y15	Z15	X16	Y16	Z16	X17	Y17	Z17	X18	Y18	Z18	X19	Y19	Z19	X20	Y20	Z20	X21	Y21	Z21	X22	Y22	Z22
139	4.662658227848101	0.9850306744550869	-0.5763950378196983	0.0	0.9849584595702594	-0.5761978820455468	0.0	1.0010268540092495	-0.6747892332359395	0.0	0.9818967277014071	-0.7726729071139741	0.0	1.002156384743715	-0.8024894296194758	0.0	0.9942729985129157	-0.8028010977426281	0.0	0.9743707583373301	-0.7895674303541016	0.0	0.9827141854135386	-0.573594436111569	0.0	0.9983159137803673	-0.6723264244971525	0.0	0.9797335706068842	-0.7678339046604692	0.0	1.0052466568741694	-0.7968432520704652	0.0	0.9997835485165827	-0.7936938959233921	0.0	0.9677555840055999	-0.7824998748290393	0.0	1.0017987308979681	-0.4430784527940715	0.0	1.025160173638924	-0.37545038123867264	0.0	1.0283642313714558	-0.4106329414339368	0.0	0.992652864737464	-0.4619799166863704	0.0	0.9814033033854539	-0.5273875664545288	0.0	1.022127810831213	-0.5773805458764607	0.0	0.994087390700514	-0.4584169192350638	0.0	0.9818484445637272	-0.5183162408569437	0.0	1.015558680735197	-0.5706753748916282	0.0
140	4.69620253164557	0.985198493631135	-0.5970020902019908	0.0	0.9837329267101469	-0.5965746166414313	0.0	1.001724720655747	-0.6942100899090344	0.0	0.9789475257284768	-0.7899698343893324	0.0	0.998370516485762	-0.8163147114857551	0.0	0.9906489296490307	-0.8164189276201258	0.0	0.9713396703536836	-0.8054067347945285	0.0	0.9831801465682996	-0.5942264704910808	0.0	0.9994411456306721	-0.6915530662840665	0.0	0.9775849282793271	-0.785560837206195	0.0	1.0023159776574857	-0.8112897896728032	0.0	0.9973112776653028	-0.8079713165873887	0.0	0.9655318609227151	-0.7981210169213654	0.0	1.0013046135672599	-0.4625356676757946	0.0	1.0228186739549439	-0.3954718724009304	0.0	1.0272015545933524	-0.42997662058411273	0.0	0.9913884635915597	-0.4820142682490474	0.0	0.9805621360213346	-0.5477455626878345	0.0	1.0164418139249474	-0.5996936878287231	0.0	0.9941478315643977	-0.47840283417851587	0.0	0.983057998885549	-0.5386795738977285	0.0	1.011989669919437	-0.5919351408795644	0.0
141	4.729746835443038	0.9850894461829888	-0.6143158626217916	0.0	0.9822342410685009	-0.6138129024577529	0.0	1.0023319683674599	-0.7105656050436335	0.0	0.9764520506551319	-0.8039828115916728	0.0	0.995253217489434	-0.8271998893582067	0.0	0.9876948078068498	-0.8270915820222493	0.0	0.9688261198205051	-0.8176924264733411	0.0	0.9833711403328619	-0.611772076501697	0.0	1.000558030664487	-0.707824545706213	0.0	0.9757603509962102	-0.8000885110268446	0.0	1.0000214865221235	-0.8224851750708383	0.0	0.9953067044417817	-0.8188528935364046	0.0	0.9636974983450223	-0.8104937676610963	0.0	1.000864490891166	-0.4790721101324487	0.0	1.021151134011133	-0.4129875118736839	0.0	1.0265928141998355	-0.44665265636530177	0.0	0.9902086735770127	-0.498997026888099	0.0	0.9796954677510646	-0.5649306242579327	0.0	1.0096186511439436	-0.6191060669763115	0.0	0.9940618420838002	-0.49543118376755235	0.0	0.9837439956389563	-0.5559978742752881	0.0	1.0075073824569907	-0.6100568138148441	0.0
142	4.763291139240506	0.9848150285494987	-0.6266238347791979	0.0	0.9807961803328783	-0.6261677366193974	0.0	1.0028485552412423	-0.722188304518328	0.0	0.9744628526792327	-0.8133481397043697	0.0	0.9929655341967242	-0.8342987344418156	0.0	0.9855078111813367	-0.8340089182037915	0.0	0.9667925118737613	-0.8254867620994681	0.0	0.9834353744445309	-0.6244177572590854	0.0	1.001630725223091	-0.7195395682830027	0.0	0.9743281393224862	-0.8099449385684051	0.0	0.9984489790330378	-0.8297059789020869	0.0	0.9938191593791131	-0.8256703733168204	0.0	0.9622435984841913	-0.8185731377330878	0.0	1.0005088802519175	-0.4910461417060314	0.0	1.0202256625453023	-0.42611420958242424	0.0	1.026447955543175	-0.4589890367205387	0.0	0.9891958098003867	-0.5112364997574231	0.0	0.9786831424364124	-0.5773108884169663	0.0	1.001993244767722	-0.6338135554097175	0.0	0.993838418033071	-0.5078450766857814	0.0	0.983836900331111	-0.5685095824940467	0.0	1.0025257351336105	-0.6233136329336644	0.0
143	4.796835443037974	0.9845077860580557	-0.6328354030680426	0.0	0.9797050039401127	-0.6324892675681677	0.0	1.0033634884007838	-0.7279258256145797	0.0	0.9729285911712515	-0.817218682193325	0.0	0.9914209315810066	-0.8371267530737605	0.0	0.9839986195173054	-0.83672481732018	0.0	0.9650882169411613	-0.828333254301817	0.0	0.9835412597212251	-0.6309475686745408	0.0	1.002672459104455	-0.7255464202344832	0.0	0.9732498440487416	-0.8141745537846098	0.0	0.9974914160537977	-0.832590643648365	0.0	0.992783164019932	-0.8281419870227773	0.0	0.9610229333889316	-0.8217358908639959	0.0	1.0003223739018752	-0.4973225063651194	0.0	1.0200414401883282	-0.4333750808429584	0.0	1.0265691388017133	-0.46574654935110177	0.0	0.9884000368266207	-0.5175386607956681	0.0	0.9774229683118867	-0.583667796791068	0.0	0.9941565614963709	-0.6423899333484417	0.0	0.9936583218321233	-0.514464730714928	0.0	0.9834596837569005	-0.5749975520425128	0.0	0.9975625017286859	-0.6304592659743214	0.0
144	4.830379746835443	0.9842183135749729	-0.6326657445753904	0.0	0.9790375888121504	-0.6324488395321798	0.0	1.0039455641658797	-0.7274029071412939	0.0	0.9718237665024194	-0.8155024457225911	0.0	0.9905017620430292	-0.8355440638385895	0.0	0.9830560998781622	-0.8351264557275218	0.0	0.9636511421383513	-0.8263154752108254	0.0	0.9837653003255493	-0.6310066605516571	0.0	1.0036876367954024	-0.7253883060502475	0.0	0.9724584833423716	-0.8126097409179045	0.0	0.9970218327282769	-0.8310729256792846	0.0	0.9921369359775876	-0.8263036357997413	0.0	0.9599335042068934	-0.8199148806701442	0.0	1.0003655555814126	-0.49747255520853234	0.0	1.0205237941975025	-0.4340820057752221	0.0	1.0267912483137838	-0.466360976339785	0.0	0.9878458145408063	-0.5174260713795263	0.0	0.9758783770932508	-0.5834276796346061	0.0	0.9867848789430911	-0.644060599747965	0.0	0.993741327946099	-0.5147909665406808	0.0	0.9827505001455501	-0.5750125453139314	0.0	0.9929531163190928	-0.6309668994292464	0.0
145	4.863924050632911	0.9838964098414513	-0.6266065835846754	0.0	0.9786873056222889	-0.6265388257852521	0.0	1.004540967564732	-0.7210776809448463	0.0	0.9711687235169185	-0.8088252069481712	0.0	0.9902769734568366	-0.8297805408370618	0.0	0.9827215724277544	-0.8294486804320746	0.0	0.9625418055781592	-0.8199878891497674	0.0	0.9840317681288955	-0.6251287299128213	0.0	1.0045596092855251	-0.7194123542880168	0.0	0.971902543025968	-0.805844355704232	0.0	0.9970358350862853	-0.8253899794164236	0.0	0.9919141763812837	-0.8204915242492203	0.0	0.9589854906240219	-0.8135934600596233	0.0	1.0005880736094934	-0.49183928273638233	0.0	1.0215192961335562	-0.42855629675572066	0.0	1.0270449670636537	-0.4610723026579416	0.0	0.987559615918132	-0.5112313599510292	0.0	0.9741094444450173	-0.576834819156902	0.0	0.9805122854534972	-0.6388867538139428	0.0	0.9941342095346924	-0.5090972783940547	0.0	0.9817778904093979	-0.5689083364911363	0.0	0.988835585497866	-0.6251271554936815	0.0
146	4.897468354430379	0.9834749446935545	-0.6157494954755182	0.0	0.9785090121151555	-0.6158879486776974	0.0	1.0050017078632394	-0.7100948389996425	0.0	0.9709622437590631	-0.7983046301825973	0.0	0.9910393087351143	-0.8204731167144288	0.0	0.9832242387837394	-0.8203417933169873	0.0	0.9618382913459229	-0.8102555689821749	0.0	0.984179714525737	-0.6145034125096072	0.0	1.0050515699885434	-0.7086979627889788	0.0	0.9715432232597582	-0.7950289407218144	0.0	0.997695437711144	-0.8161820057940271	0.0	0.992248723824141	-0.8113933383221741	0.0	0.95824275167785	-0.803719343607077	0.0	1.0008543879398712	-0.4814299434670674	0.0	1.022822191169395	-0.41797983179485154	0.0	1.027318368465677	-0.4508699557900278	0.0	0.9875630688668499	-0.5000345498117293	0.0	0.9722625333220063	-0.5649224600834787	0.0	0.9758289335784323	-0.6277796526905703	0.0	0.9946687940916528	-0.4983829421001137	0.0	0.9806040058907657	-0.5576936091297775	0.0	0.9853416334156088	-0.6139576867794481	0.0
147	4.931012658227848	0.9829494444416277	-0.6015746784157456	0.0	0.9784256704286383	-0.6020204713961255	0.0	1.0051640279290492	-0.6960607984060484	0.0	0.9711603263149386	-0.7853914320948987	0.0	0.9931371633425611	-0.8087250212210946	0.0	0.9848389655402726	-0.8089422197779198	0.0	0.9615901988453257	-0.7983270452831881	0.0	0.984088223111773	-0.600668325186577	0.0	1.0049284458523833	-0.6948470560842127	0.0	0.9713478264926465	-0.7817246275176145	0.0	0.999227870682996	-0.8045942719143491	0.0	0.9933188334372935	-0.8000857632108382	0.0	0.9577926490216199	-0.7916392679759631	0.0	1.001030826531187	-0.4676989792132169	0.0	1.0241993472069053	-0.4040250864869909	0.0	1.0275966607893026	-0.43726309297400423	0.0	0.9878257747402337	-0.4854362579925271	0.0	0.970506720667609	-0.5493365970758278	0.0	0.972974376461555	-0.6124281799706124	0.0	0.9951356346270009	-0.48419254028676656	0.0	0.9793974581355336	-0.542913990631171	0.0	0.9827751627890774	-0.5990994881208129	0.0
148	4.964556962025316	0.9823650729377038	-0.5857570606351783	0.0	0.9784318819128413	-0.5866220512530091	0.0	1.0048872581709398	-0.6807673174727975	0.0	0.9716888546494169	-0.7717259436676995	0.0	0.9966295833858054	-0.7960594551060188	0.0	0.9876004753636057	-0.7967584605822127	0.0	0.9618301936509627	-0.7856374375191708	0.0	0.9837159712657243	-0.5852821611918831	0.0	1.0040669029334726	-0.6796735185183103	0.0	0.9713010952549237	-0.767726263459686	0.0	1.0016579113480457	-0.7921624408050915	0.0	0.9951930265021374	-0.7879609930425024	0.0	0.9577289327747273	-0.7789424839734188	0.0	1.0010380625219324	-0.45230281121481597	0.0	1.0254054286501355	-0.3885145452549387	0.0	1.0278288485801526	-0.42199246788487854	0.0	0.9882429904998529	-0.46924184340448344	0.0	0.9689762538143437	-0.5320759257001249	0.0	0.9718944407995472	-0.5950515659006791	0.0	0.9954456457917275	-0.46833246226113734	0.0	0.9784638558814834	-0.5265131233288883	0.0	0.9816166538053898	-0.5826436431103559	0.0
149	4.998101265822784	0.9817607050641075	-0.5699904690981394	0.0	0.9785384000176504	-0.5713381453690988	0.0	1.0040805335604404	-0.6658898001994747	0.0	0.9724396194563107	-0.7588348812513153	0.0	1.0009912302544384	-0.7841300944399562	0.0	0.9910894969897688	-0.7853218091540669	0.0	0.9625414447570513	-0.7735819559826305	0.0	0.9830507014157145	-0.5699587149105968	0.0	1.0025024487116596	-0.6648637273672316	0.0	0.971423116018303	-0.7546750896284995	0.0	1.0045906141751058	-0.7804683950023658	0.0	0.9976458345633776	-0.7765049713195152	0.0	0.9580963779051607	-0.7671183061930528	0.0	1.0008593659713148	-0.43688714229865167	0.0	1.0262433173677472	-0.37316081272932505	0.0	1.0279296005643523	-0.4067777725430734	0.0	0.988681940673971	-0.45317790817392173	0.0	0.9677612558718003	-0.515121370532922	0.0	0.9722926677173332	-0.5778945520694148	0.0	0.9956145103755599	-0.4525845252081246	0.0	0.978163765071295	-0.5105097536730073	0.0	0.9823474063467552	-0.5667016228015137	0.0
